<?xml version="1.0" encoding="utf-8"?>
<!-- Generator: Adobe Illustrator 19.2.0, SVG Export Plug-In . SVG Version: 6.00 Build 0)  -->
<svg version="1.1" id="Layer_1" xmlns="http://www.w3.org/2000/svg" xmlns:xlink="http://www.w3.org/1999/xlink" x="0px" y="0px"
	 width="24px" height="24px" viewBox="0 0 24 24" style="enable-background:new 0 0 24 24;" xml:space="preserve">
<g>
	<path d="M12.031,0.12c-6.552,0-11.882,5.331-11.882,11.882s5.331,11.882,11.882,11.882c6.552,0,11.882-5.33,11.882-11.882
		S18.583,0.12,12.031,0.12z M12.031,22.885c-6,0-10.882-4.882-10.882-10.882c0-6,4.882-10.882,10.882-10.882
		s10.882,4.882,10.882,10.882C22.913,18.003,18.031,22.885,12.031,22.885z"/>
	<path d="M16.502,10.975l-5.407-4.22c-0.393-0.306-0.915-0.361-1.364-0.143C9.283,6.831,9.004,7.277,9.004,7.776l0,8.44
		c0,0.499,0.279,0.945,0.728,1.164c0.182,0.089,0.376,0.133,0.569,0.133c0.282,0,0.561-0.094,0.794-0.275l5.406-4.222
		C16.818,12.77,17,12.398,17,11.996S16.818,11.223,16.502,10.975z M15.887,12.228l-5.406,4.221c-0.13,0.103-0.26,0.058-0.31,0.033
		c-0.05-0.024-0.166-0.1-0.166-0.266l0-8.44c0-0.166,0.116-0.24,0.166-0.265c0.026-0.013,0.074-0.031,0.133-0.031
		c0.053,0,0.115,0.015,0.177,0.063l5.407,4.22C15.985,11.841,16,11.942,16,11.996C16,12.05,15.985,12.152,15.887,12.228z"/>
</g>
</svg>
